<svg data-v-c9160a02="" t="1720339216589" viewBox="0 0 1024 1024" version="1.1" xmlns="http://www.w3.org/2000/svg" p-id="18710" width="64" height="64" class="icon"><path data-v-c9160a02="" d="M823.940741 380.207407v-34.133333h-5.688889v15.17037h-6.637037v-32.237037H805.925926v32.237037h-9.481482v-36.977777h-5.688888V379.259259H755.674074v54.992593H773.688889v122.311111h132.740741v-47.407407h-50.251852V411.496296H838.162963V379.259259h-14.222222v0.948148zM206.696296 707.318519c-20.859259 0-41.718519 0.948148-62.577777 0.948148-3.792593-26.548148 7.585185-47.407407 25.6-66.370371-30.340741-37.925926-51.2-88.177778-66.370371-146.014815h128.948148v-16.118518h47.407408l8.533333-160.237037v-3.792593H317.62963v3.792593l0.948148 10.42963H456.059259V346.074074h-3.792592l-9.481482 0.948148v72.059259h4.740741v21.807408l-5.688889 10.42963h-2.844444v1.896296c0 0.948148-0.948148 0.948148-0.948149 1.896296-0.948148 0.948148-0.948148 1.896296-1.896296 2.844445-0.948148 4.740741 5.688889 6.637037 7.585185-0.948149 0.948148 1.896296 1.896296 2.844444 2.844445 4.740741-0.948148 9.481481-18.962963 7.585185-16.118519-3.792592l3.792593-6.637037h-3.792593l-3.792592-8.533334v-21.807407h4.74074v-71.111111l-109.985185 8.533333 6.637037 122.311111h18.014815V502.518519c26.548148 7.585185 51.2 20.859259 70.162963 44.562962 14.222222 18.962963 12.325926 18.962963 51.2 18.962963H919.703704c3.792593 53.096296-5.688889 100.503704-29.392593 141.274075H206.696296z m244.622223-186.785186h-2.844445v36.977778h58.785185v-36.977778h-55.94074zM168.77037 367.881481h-3.792592v36.02963H224.711111v-36.02963h-55.940741z m2.844445 15.170371V398.222222h45.511111v-23.703703h-45.511111v8.533333z m-2.844445 27.496296h-3.792592v36.977778h58.785185v-36.977778h-54.992593z m11.377778 6.637037l-8.533333 8.533334v4.74074l12.325926-13.274074H180.148148z m-7.585185 4.740741l4.740741-4.740741h-4.740741v4.740741z m16.118518-4.740741l-16.118518 17.066667v4.740741l20.859259-21.807408h-4.740741z m7.585186 0l-21.807408 23.703704h4.740741l21.807407-23.703704h-4.74074z m8.533333 0l-21.807407 23.703704h5.688888l21.807408-23.703704h-5.688889z m9.481481 0l-21.807407 23.703704h5.688889l19.911111-20.859259V417.185185h-3.792593z m2.844445 6.637037l-16.118519 17.066667h4.740741l11.377778-12.325926v-4.740741z m0 9.481482l-7.585185 8.533333h7.585185v-8.533333z m-48.355556 19.911111h-3.792592v36.029629h58.785185v-36.029629h-54.992593z m11.377778 6.637037l-8.533333 8.533333v4.740741l12.325926-13.274074H180.148148z m-7.585185 4.740741l4.740741-4.740741h-4.740741v4.740741z m16.118518-4.740741l-16.118518 17.066667v4.74074l20.859259-21.807407h-4.740741z m7.585186 0L174.459259 483.555556h4.740741l21.807407-23.703704h-4.74074z m8.533333 0L182.992593 483.555556h5.688888l21.807408-23.703704h-5.688889z m9.481481 0L192.474074 483.555556h5.688889l19.911111-20.85926v-1.896296h-3.792593v-0.948148z m2.844445 5.688889l-16.118519 17.066666h4.740741l11.377778-12.325926v-4.74074z m0 9.481481l-7.585185 8.533334h7.585185v-8.533334z m71.111111 4.740741h6.637037l-6.637037-0.948148v0.948148z m27.496296-141.274074l0.948148 10.42963 9.481482-10.42963h-10.42963z m16.118519 0l2.844444 8.533333 8.533334-8.533333H331.851852z m19.911111 0l2.844444 8.533333h3.792593l10.42963-7.585185h-17.066667v-0.948148z m29.392593 0v5.688889l8.533333-5.688889h-8.533333z m24.651851 0l0.948149 2.844444 5.688888-2.844444h-6.637037z m19.911112 0l0.948148 2.844444 21.807407-1.896296v-0.948148h-22.755555z m-2.844445 2.844444l-1.896296-2.844444-5.688889 3.792592 7.585185-0.948148z m-19.911111 1.896297l-0.948148-4.740741H398.222222l-8.533333 5.688889 13.274074-0.948148z m-25.6 1.896296l-0.948148-6.637037h-1.896296l-9.481482 7.585185 12.325926-0.948148z m-26.548148 1.896296l-2.844445-6.637037-6.637037 7.585185 9.481482-0.948148z m-19.911111 1.896297l-1.896297-7.585186-6.637037 7.585186h8.533334z m-18.962963 0.948148l-13.274074 13.274074 14.222222 6.637037v-16.118519l-0.948148-3.792592z m0-4.740741v-12.325926l-12.325926 8.533333 12.325926 3.792593z m123.259259 3.792593v72.059259h4.740741v-72.059259h-4.740741zM318.577778 466.488889l-23.703704 9.481481 23.703704 3.792593h0.948148l-0.948148-13.274074z m-29.392593 7.585185l26.548148-10.42963-25.6-8.533333-0.948148 18.962963z m26.548148-53.096296l-19.911111 9.481481 19.911111 3.792593v-13.274074z m0.948148 17.066666l-21.807407 14.222223 22.755556 6.637037-0.948149-20.85926z m-26.548148 13.274075l20.85926-13.274075-19.911112-3.792592-0.948148 17.066667z m0.948148-22.755556l21.807408-10.42963-20.859259-7.585185-0.948149 18.014815z m22.755556-52.148148l-16.118518 9.481481 16.118518 3.792593v-13.274074z m0.948148 17.066666L297.718519 407.703704l18.014814 6.637037-0.948148-20.85926z m-22.755555 12.325926l17.066666-13.274074-16.118518-3.792592-0.948148 17.066666z m1.896296-22.755555l17.066667-10.42963-16.118519-7.585185-0.948148 18.014815z m0.948148-21.807408l13.274074-13.274074-12.325926-3.792592-0.948148 17.066666z m0.948148-22.755555l15.170371-11.377778v-3.792592h-14.222223l-0.948148 15.17037z m353.659259 140.325926h-3.792592v36.977778h58.785185v-37.925926h-54.992593v0.948148z m3.792593 15.17037V509.155556h45.511111v-23.703704h-45.511111v8.533333z m-3.792593 26.548148h-3.792592v36.977778h58.785185v-36.977778h-54.992593z m3.792593 16.118519v14.222222h45.511111v-23.703704h-45.511111v9.481482zM516.740741 434.251852h-2.844445v36.977778h58.785185v-36.977778h-55.94074z m2.844444 15.17037V464.592593H566.044444v-23.703704H519.585185v8.533333z m63.525926 29.392593h-2.844444v36.977778h57.837037v-37.925926h-54.992593v0.948148z m2.844445 15.17037V509.155556h45.511111v-23.703704h-45.511111v8.533333z m-2.844445 26.548148h-2.844444v36.977778h57.837037v-36.977778h-54.992593z m2.844445 15.170371V550.874074h45.511111v-23.703704h-45.511111v8.533334z m-69.214815-57.837037h-2.844445v36.977777h58.785185v-36.977777h-55.94074z m11.377778 6.637037l-8.533334 8.533333v4.740741l12.325926-13.274074h-3.792592z m-7.585186 4.74074l4.740741-4.74074h-4.740741v4.74074z m16.118519-4.74074L520.533333 502.518519v4.74074l20.85926-21.807407h-4.740741v-0.948148z m7.585185 0l-21.807407 23.703703h4.74074l21.807408-23.703703h-4.740741z m8.533333 0L530.962963 508.207407h5.688889l21.807407-23.703703h-5.688889z m9.481482 0L540.444444 508.207407h5.688889l19.911111-20.859259v-1.896296h-3.792592v-0.948148z m3.792592 6.637037L549.925926 508.207407h4.740741l11.377777-12.325926v-4.74074z m0 9.481481l-7.585185 8.533334h7.585185v-8.533334z m-114.725925-22.755555h-2.844445v36.977777h58.785185v-36.977777h-55.94074z m11.377777 6.637037l-8.533333 8.533333v4.740741l12.325926-13.274074h-3.792593z m-8.533333 4.74074l4.740741-4.74074h-4.740741v4.74074z m17.066667-4.74074L454.162963 502.518519v4.74074l20.859259-21.807407h-3.792592v-0.948148z m7.585185 0l-21.807408 23.703703h4.740741l21.807408-23.703703h-4.740741z m8.533333 0l-21.807407 23.703703h5.688889l21.807407-23.703703h-5.688889z m9.481482 0L474.074074 508.207407h5.688889l19.911111-20.859259v-1.896296h-2.844444v-0.948148z m2.844444 6.637037L483.555556 508.207407h4.74074l11.377778-12.325926v-4.74074z m0 9.481481l-7.585185 8.533334h7.585185v-8.533334z m17.066667 19.911111h-2.844445v36.977778h58.785185v-36.977778h-55.94074z m11.377778 6.637037l-8.533334 8.533334v4.74074l12.325926-13.274074h-3.792592z m-7.585186 4.740741l4.740741-4.740741h-4.740741v4.740741z m16.118519-4.740741l-16.118519 17.066667v4.740741l20.85926-21.807408h-4.740741z m7.585185 0l-21.807407 23.703704h4.74074l21.807408-23.703704h-4.740741z m8.533333 0L530.962963 550.874074h5.688889l21.807407-23.703704h-5.688889z m9.481482 0L540.444444 550.874074h5.688889l19.911111-20.859259v-1.896296h-3.792592v-0.948149z m3.792592 5.688889L549.925926 549.925926h4.740741l11.377777-12.325926v-4.740741z m0 9.481482l-7.585185 8.533333h7.585185v-8.533333z m-103.348148-15.170371l-8.533333 8.533334v4.74074l12.325926-13.274074h-3.792593z m-8.533333 4.740741l4.740741-4.740741h-4.740741v4.740741z m17.066667-4.740741L455.111111 544.237037v4.740741l20.859259-21.807408h-4.74074z m7.585185 0l-21.807408 23.703704h4.740741l21.807408-23.703704h-4.740741z m8.533333 0l-21.807407 23.703704h5.688889l21.807407-23.703704h-5.688889z m9.481482 0L474.074074 550.874074h5.688889l19.911111-20.859259v-1.896296h-2.844444v-0.948149z m2.844444 5.688889L483.555556 550.874074h4.74074l11.377778-12.325926v-5.688889z m0 9.481482l-7.585185 8.533333h7.585185v-8.533333z m327.111111 9.481481h-47.407407v-41.718518h9.481481v-11.377778h-9.481481V455.111111h9.481481v-11.377778h-9.481481v-15.17037H761.362963v-43.614815h72.059259V417.185185H851.437037v97.659259H900.740741v36.02963h-73.955556v0.948148z m-2.844444-53.096296H834.37037v11.377778h-10.429629v-11.377778z m-15.170371 0h10.42963v11.377778h-10.42963v-11.377778z m-15.17037 0h10.42963v11.377778h-10.42963v-11.377778z m30.340741-54.044445H834.37037V455.111111h-10.429629v-10.42963z m-15.170371 0h10.42963V455.111111h-10.42963v-10.42963z m-15.17037 0h10.42963V455.111111h-10.42963v-10.42963z m-28.444444-40.77037h10.429629v11.377778h-10.429629v-11.377778z m45.511111 0h10.429629v11.377778h-10.429629v-11.377778z m-14.222223 0h10.42963v11.377778H796.444444v-11.377778z m-15.17037 0h10.42963v11.377778h-10.42963v-11.377778zM208.592593 646.637037l49.303703 13.274074H872.296296l3.792593-13.274074H208.592593z" fill="#2c2c2c" p-id="18711"></path></svg>